# xmcd
#
# Track frame offsets: 
#        150
#        12362
#        25178
#        38856
#        51041
#        64325
#        77640
#        91730
#        105287
#        118048
#
# Disc length: 1738 seconds
#
# Revision: 3
# Processed by: cddbd v1.5.2PL0 Copyright (c) Steve Scherf et al.
# Submitted via: ExactAudioCopy v0.99pb5
#
DISCID=7106c80a
DTITLE=Various Artist - Men of Blues: Mississippi River Blues
DYEAR=1998
DGENRE=Blues
TTITLE0=Big Bill Broonzy - Mississippi River Blues
TTITLE1=Walter Davis - Sweet Sixteen
TTITLE2=Robert Johnson - Sweet Home Chicago
TTITLE3=Bumble Bee Slim - Hard Rocks In My Bed
TTITLE4=Johnnie Temple - Louise Louise Blues
TTITLE5=Big Joe Williams - Brother James
TTITLE6=Curtis Jones - Lonesome Bedroom Blues
TTITLE7=Washboard Sam - Diggin' My Potatoes
TTITLE8=Tommy McClennan - Bottle It Up and Go
TTITLE9=Peetie Wheatstraw - Gangster's Blues
EXTD=
EXTT0=
EXTT1=
EXTT2=
EXTT3=
EXTT4=
EXTT5=
EXTT6=
EXTT7=
EXTT8=
EXTT9=
PLAYORDER=
